<svg xmlns="http://www.w3.org/2000/svg">
  <defs>
    <symbol id="book" viewBox="0 0 512 512">
      <path fill="currentColor" stroke="none" d="M202.24 74C166.11 56.75 115.61 48.3 48 48a31.36 31.36 0 00-17.92 5.33A32 32 0 0016 79.9V366c0 19.34 13.76 33.93 32 33.93 71.07 0 142.36 6.64 185.06 47a4.11 4.11 0 006.94-3V106.82a15.89 15.89 0 00-5.46-12A143 143 0 00202.24 74zM481.92 53.3A31.33 31.33 0 00464 48c-67.61.3-118.11 8.71-154.24 26a143.31 143.31 0 00-32.31 20.78 15.93 15.93 0 00-5.45 12v337.13a3.93 3.93 0 006.68 2.81c25.67-25.5 70.72-46.82 185.36-46.81a32 32 0 0032-32v-288a32 32 0 00-14.12-26.61z"/>
    </symbol>
    <symbol id="goal" viewBox="0 0 512 512">
        <path fill="currentColor" stroke="none" d="M477.44 50.06a.29.29 0 010-.09 20.4 20.4 0 00-15.13-15.3c-29.8-7.27-76.68.48-128.63 21.28-52.36 21-101.42 52-134.58 85.22A320.7 320.7 0 00169.55 175c-22.33-1-42 2.18-58.57 9.41-57.74 25.41-74.23 90.44-78.62 117.14a25 25 0 0027.19 29h.13l64.32-7.02c.08.82.17 1.57.24 2.26a34.36 34.36 0 009.9 20.72l31.39 31.41a34.27 34.27 0 0020.71 9.91l2.15.23-7 64.24v.13A25 25 0 00206 480a25.25 25.25 0 004.15-.34C237 475.34 302 459.05 327.34 401c7.17-16.46 10.34-36.05 9.45-58.34a314.78 314.78 0 0033.95-29.55c33.43-33.26 64.53-81.92 85.31-133.52 20.69-51.36 28.48-98.59 21.39-129.53zM370.38 224.94a58.77 58.77 0 110-83.07 58.3 58.3 0 010 83.07z"/><path d="M161.93 386.44a16 16 0 00-11 2.67c-6.39 4.37-12.81 8.69-19.29 12.9-13.11 8.52-28.79-6.44-21-20l12.15-21a16 16 0 00-15.16-24.91A61.25 61.25 0 0072 353.56c-3.66 3.67-14.79 14.81-20.78 57.26A357.94 357.94 0 0048 447.59 16 16 0 0064 464h.4a359.87 359.87 0 0036.8-3.2c42.47-6 53.61-17.14 57.27-20.8a60.49 60.49 0 0017.39-35.74 16 16 0 00-13.93-17.82z"/>    
    </symbol>
    <symbol id="metric" viewBox="0 0 512 512">
        <path fill="currentColor" stroke="none" d="M456 128a40 40 0 00-37.23 54.6l-84.17 84.17a39.86 39.86 0 00-29.2 0l-60.17-60.17a40 40 0 10-74.46 0L70.6 306.77a40 40 0 1022.63 22.63L193.4 229.23a39.86 39.86 0 0029.2 0l60.17 60.17a40 40 0 1074.46 0l84.17-84.17A40 40 0 10456 128z"/>
    </symbol>
    <symbol id="habit" viewBox="0 0 512 512">
        <path fill="currentColor" stroke="none" d="M480 128a64 64 0 00-64-64h-16V48.45c0-8.61-6.62-16-15.23-16.43A16 16 0 00368 48v16H144V48.45c0-8.61-6.62-16-15.23-16.43A16 16 0 00112 48v16H96a64 64 0 00-64 64v12a4 4 0 004 4h440a4 4 0 004-4zM32 416a64 64 0 0064 64h320a64 64 0 0064-64V179a3 3 0 00-3-3H35a3 3 0 00-3 3zm344-208a24 24 0 11-24 24 24 24 0 0124-24zm0 80a24 24 0 11-24 24 24 24 0 0124-24zm-80-80a24 24 0 11-24 24 24 24 0 0124-24zm0 80a24 24 0 11-24 24 24 24 0 0124-24zm0 80a24 24 0 11-24 24 24 24 0 0124-24zm-80-80a24 24 0 11-24 24 24 24 0 0124-24zm0 80a24 24 0 11-24 24 24 24 0 0124-24zm-80-80a24 24 0 11-24 24 24 24 0 0124-24zm0 80a24 24 0 11-24 24 24 24 0 0124-24z"/>
    </symbol>
    <symbol id="physical" viewBox="0 0 512 512">
        <path d="M467 176a29.94 29.94 0 00-25.32 12.5 2 2 0 01-3.64-1.14v-36.65c0-20.75-16.34-38.21-37.08-38.7A38 38 0 00362 150v82a2 2 0 01-2 2H152a2 2 0 01-2-2v-81.29c0-20.75-16.34-38.21-37.08-38.7A38 38 0 0074 150v37.38a2 2 0 01-3.64 1.14A29.94 29.94 0 0045 176c-16.3.51-29 14.31-29 30.62v98.72c0 16.31 12.74 30.11 29 30.62a29.94 29.94 0 0025.32-12.5 2 2 0 013.68 1.16v36.67C74 382 90.34 399.5 111.08 400A38 38 0 00150 362v-82a2 2 0 012-2h208a2 2 0 012 2v81.29c0 20.75 16.34 38.21 37.08 38.7A38 38 0 00438 362v-37.38a2 2 0 013.64-1.14A29.94 29.94 0 00467 336c16.3-.51 29-14.31 29-30.62v-98.74c0-16.31-12.74-30.11-29-30.64z"/>
    </symbol>
    <symbol id="wellness" viewBox="0 0 512 512">
        <path fill="currentColor" stroke="none" d="M432 112.8l-.45.12-.42.13c-1 .28-2 .58-3 .89-18.61 5.46-108.93 30.92-172.56 30.92-59.13 0-141.28-22-167.56-29.47a73.79 73.79 0 00-8-2.58c-19-5-32 14.3-32 31.94 0 17.47 15.7 25.79 31.55 31.76v.28l95.22 29.74c9.73 3.73 12.33 7.54 13.6 10.84 4.13 10.59.83 31.56-.34 38.88l-5.8 45-32.19 176.19q-.15.72-.27 1.47l-.23 1.27c-2.32 16.15 9.54 31.82 32 31.82 19.6 0 28.25-13.53 32-31.94s28-157.57 42-157.57 42.84 157.57 42.84 157.57c3.75 18.41 12.4 31.94 32 31.94 22.52 0 34.38-15.74 32-31.94a57.17 57.17 0 00-.76-4.06L329 301.27l-5.79-45c-4.19-26.21-.82-34.87.32-36.9a1.09 1.09 0 00.08-.15c1.08-2 6-6.48 17.48-10.79l89.28-31.21a16.9 16.9 0 001.62-.52c16-6 32-14.3 32-31.93S451 107.81 432 112.8z"/>
    </symbol>
    <!-- Icons go here -->
  </defs>
</svg>